<?xml version="1.0" encoding="utf-8"?>
<!-- Generator: Adobe Illustrator 22.1.0, SVG Export Plug-In . SVG Version: 6.00 Build 0)  -->
<svg version="1.1" id="Layer_1" xmlns="http://www.w3.org/2000/svg" xmlns:xlink="http://www.w3.org/1999/xlink" x="0px" y="0px"
	 viewBox="0 0 1134.4 83.1" style="enable-background:new 0 0 1134.4 83.1;" xml:space="preserve">
<style type="text/css">
	.st0{opacity:0.2;fill:#FF5B69;}
	.st1{opacity:0.25;fill:#FFCC00;}
	.st2{opacity:0.2;fill:#FFCC00;}
	.st3{opacity:0.2;fill:#335BBA;}
	.st4{opacity:0.2;fill:none;stroke:#335BBA;stroke-width:2;stroke-miterlimit:10;}
</style>
<title>confetti</title>
<path class="st0" d="M279.8,15.5c-0.5,0.3-1.2,0.2-1.5-0.3l-5.4-8.5c-0.4-0.5-0.3-1.2,0.2-1.6c0.5-0.4,1.2-0.3,1.6,0.2
	c0,0,0.1,0.1,0.1,0.1l5.4,8.5C280.5,14.5,280.4,15.2,279.8,15.5z"/>
<path class="st0" d="M281.4,8.6l-8.5,5.4c-0.5,0.3-1.2,0.2-1.5-0.3c0,0,0,0,0,0c-0.3-0.5-0.2-1.2,0.4-1.5c0,0,0,0,0,0l8.5-5.3
	c0.5-0.4,1.2-0.3,1.6,0.2c0.4,0.5,0.3,1.2-0.2,1.6C281.5,8.6,281.5,8.6,281.4,8.6L281.4,8.6z"/>
<path class="st1" d="M414.2,13c-0.5-0.2-0.8-0.7-0.6-1.3l2.8-8.6c0.2-0.5,0.7-0.8,1.3-0.6c0.5,0.2,0.8,0.7,0.6,1.3l-2.8,8.6
	C415.3,12.8,414.7,13.1,414.2,13z"/>
<path class="st1" d="M419.9,10.1l-8.6-2.8c-0.5-0.2-0.8-0.7-0.7-1.2s0.7-0.8,1.2-0.7c0,0,0,0,0.1,0l8.6,2.8c0.5,0.2,0.8,0.7,0.6,1.3
	S420.4,10.2,419.9,10.1C419.9,10.1,419.9,10.1,419.9,10.1z"/>
<path class="st0" d="M925.2,73.9c-0.5-0.2-0.8-0.7-0.6-1.3l2.8-8.6c0.2-0.5,0.7-0.8,1.3-0.6c0.5,0.2,0.8,0.7,0.6,1.3l-2.8,8.6
	C926.3,73.7,925.7,74,925.2,73.9z"/>
<path class="st0" d="M930.9,71l-8.6-2.8c-0.5-0.2-0.8-0.7-0.7-1.2c0.2-0.5,0.7-0.8,1.2-0.7c0,0,0,0,0.1,0l8.6,2.8
	c0.5,0.2,0.8,0.7,0.6,1.3S931.4,71.1,930.9,71L930.9,71z"/>
<path class="st1" d="M900.8,10.6c-2.5,0-4.5-2-4.5-4.5s2-4.5,4.5-4.5s4.5,2,4.5,4.5l0,0C905.3,8.6,903.3,10.6,900.8,10.6z
	 M900.8,3.6c-1.4,0-2.5,1.1-2.5,2.5s1.1,2.5,2.5,2.5c1.4,0,2.5-1.1,2.5-2.5S902.2,3.6,900.8,3.6z"/>
<path class="st2" d="M550.2,83.1c-2.5,0-4.5-2-4.5-4.5s2-4.5,4.5-4.5s4.5,2,4.5,4.5l0,0C554.7,81.1,552.7,83.1,550.2,83.1z
	 M550.2,76.1c-1.4,0-2.5,1.1-2.5,2.5s1.1,2.5,2.5,2.5s2.5-1.1,2.5-2.5S551.6,76.1,550.2,76.1z"/>
<path class="st0" d="M59.2,6.1c-2.5,0-4.5-2-4.5-4.5s2-4.5,4.5-4.5s4.5,2,4.5,4.5C63.7,4.1,61.7,6.1,59.2,6.1z M59.2-0.9
	c-1.4,0-2.5,1.1-2.5,2.5s1.1,2.5,2.5,2.5s2.5-1.1,2.5-2.5S60.6-0.9,59.2-0.9z"/>
<path class="st3" d="M104.5,81.1c-2.5,0-4.5-2-4.5-4.5s2-4.5,4.5-4.5s4.5,2,4.5,4.5C109,79.1,107,81.1,104.5,81.1z M104.5,74.1
	c-1.4,0-2.5,1.1-2.5,2.5s1.1,2.5,2.5,2.5s2.5-1.1,2.5-2.5S105.9,74.1,104.5,74.1z"/>
<circle class="st4" cx="1126.2" cy="65.6" r="3.5"/>
<circle class="st4" cx="570.7" cy="17.1" r="3.5"/>
<path class="st0" d="M1106,7.7c-0.2-0.3-0.2-0.6,0-0.9l3.6-7.2c0.3-0.5,0.9-0.7,1.3-0.4c0,0,0,0,0,0c0.5,0.2,0.7,0.8,0.4,1.3
	l-3.6,7.2c-0.2,0.5-0.8,0.7-1.3,0.5c0,0,0,0,0,0C1106.3,8.1,1106.1,7.9,1106,7.7z"/>
<path class="st0" d="M707.6,11.9c-0.3,0.2-0.6,0.2-0.9,0.1l-7.6-2.8c-0.5-0.2-0.8-0.8-0.6-1.3c0,0,0,0,0,0c0.2-0.5,0.8-0.8,1.3-0.6
	l7.5,2.9c0.5,0.2,0.8,0.8,0.6,1.3c0,0,0,0,0,0C707.8,11.6,707.7,11.7,707.6,11.9z"/>
<path class="st3" d="M159.7,40.1c-0.5,0.1-1.1-0.2-1.2-0.7l-2.4-8.7c-0.2-0.5,0.1-1.1,0.6-1.3c0.5-0.2,1.1,0.1,1.3,0.6
	c0,0,0,0.1,0,0.1l2.4,8.7C160.5,39.4,160.2,40,159.7,40.1z"/>
<path class="st3" d="M162.8,34.6l-8.7,2.4c-0.5,0.2-1.1-0.2-1.2-0.7c0,0,0,0,0,0c-0.1-0.5,0.2-1.1,0.7-1.2c0,0,0,0,0,0l8.7-2.4
	c0.5-0.2,1.1,0.1,1.3,0.6c0.2,0.5-0.1,1.1-0.6,1.3C162.9,34.6,162.9,34.6,162.8,34.6L162.8,34.6z"/>
<path class="st3" d="M786.2,34.4c-0.5,0.2-1.1-0.2-1.2-0.7l-2.5-8.6c-0.2-0.5,0.1-1.1,0.6-1.3c0.5-0.2,1.1,0.1,1.3,0.6
	c0,0,0,0.1,0,0.1l2.5,8.6C787,33.7,786.7,34.2,786.2,34.4z"/>
<path class="st3" d="M789.3,28.8l-8.6,2.5c-0.5,0.2-1.1-0.1-1.2-0.7c0,0,0,0,0,0c-0.2-0.5,0.2-1.1,0.7-1.2c0,0,0,0,0,0l8.6-2.4
	c0.5-0.2,1.1,0.1,1.3,0.6s-0.1,1.1-0.6,1.3C789.4,28.8,789.3,28.9,789.3,28.8L789.3,28.8z"/>
<path class="st1" d="M379.2,66.8c-2.5,0-4.5-2-4.5-4.5s2-4.5,4.5-4.5s4.5,2,4.5,4.5l0,0C383.7,64.8,381.7,66.8,379.2,66.8z
	 M379.2,59.8c-1.4,0-2.5,1.1-2.5,2.5c0,1.4,1.1,2.5,2.5,2.5s2.5-1.1,2.5-2.5C381.7,61,380.6,59.8,379.2,59.8z"/>
<path class="st1" d="M687,73.1c-2.5,0-4.5-2-4.5-4.5s2-4.5,4.5-4.5s4.5,2,4.5,4.5C691.5,71.1,689.5,73.1,687,73.1z M687,66.1
	c-1.4,0-2.5,1.1-2.5,2.5c0,1.4,1.1,2.5,2.5,2.5c1.4,0,2.5-1.1,2.5-2.5C689.5,67.2,688.4,66.1,687,66.1z"/>
<path class="st3" d="M599.4,69.9c-0.1-0.3-0.1-0.7,0.1-0.9l4.8-6.5c0.3-0.4,1-0.5,1.4-0.2c0,0,0,0,0,0c0.4,0.3,0.5,1,0.2,1.4
	c0,0,0,0,0,0l-4.8,6.5c-0.3,0.4-1,0.5-1.4,0.2c0,0,0,0,0,0C599.6,70.3,599.4,70.1,599.4,69.9z"/>
<path class="st0" d="M1010,21.6c-0.3,0-0.6-0.2-0.8-0.4l-4.6-6.6c-0.3-0.5-0.2-1.1,0.3-1.4c0,0,0,0,0,0c0.5-0.3,1.1-0.2,1.4,0.3
	l4.6,6.6c0.3,0.5,0.2,1.1-0.2,1.4c0,0,0,0,0,0C1010.4,21.6,1010.2,21.6,1010,21.6z"/>
<path class="st0" d="M478.8,37.3c-0.3,0-0.6-0.3-0.8-0.6l-3.5-7.3c-0.2-0.5,0-1.1,0.5-1.3c0,0,0,0,0,0c0.5-0.2,1.1,0,1.3,0.5
	l3.5,7.2c0.2,0.5,0,1.1-0.5,1.3c0,0,0,0,0,0C479.2,37.3,479,37.4,478.8,37.3z"/>
<path class="st1" d="M24,59.5c-0.3-0.1-0.5-0.4-0.6-0.7L22,50.8c-0.1-0.6,0.3-1.1,0.8-1.2c0.6-0.1,1.1,0.3,1.2,0.8l1.4,7.9
	c0.1,0.5-0.3,1.1-0.8,1.2c0,0,0,0,0,0C24.4,59.6,24.2,59.6,24,59.5z"/>
<path class="st3" d="M286.3,78.9c-0.2-0.2-0.4-0.6-0.3-0.9l1-8c0.1-0.6,0.6-0.9,1.1-0.9c0.6,0.1,0.9,0.6,0.9,1.1l-1,8
	c-0.1,0.5-0.6,0.9-1.1,0.9c0,0,0,0,0,0C286.7,79.1,286.5,79,286.3,78.9z"/>
</svg>
